<?xml version="1.0" encoding="utf-8"?>
<!-- Generator: Adobe Illustrator 26.0.3, SVG Export Plug-In . SVG Version: 6.00 Build 0)  -->
<svg version="1.1" id="Digital_Transformation_no6" xmlns="http://www.w3.org/2000/svg" xmlns:xlink="http://www.w3.org/1999/xlink"
	 x="0px" y="0px" viewBox="0 0 5400 2339.3" style="enable-background:new 0 0 5400 2339.3;" xml:space="preserve">
<style type="text/css">
	
		.st0{clip-path:url(#SVGID_00000034788574911385550430000000041254891241415593_);fill:url(#SVGID_00000162336133248348199460000018062073810907426177_);}
	.st1{clip-path:url(#SVGID_00000049220653289938710550000004786452956795768997_);}
	.st2{fill:#95D0E5;}
	.st3{fill:#CAE7F1;}
	.st4{opacity:0.46;}
	.st5{fill:url(#SVGID_00000115506437921858255260000018256608716453232308_);}
	.st6{fill:url(#SVGID_00000025427223948629811010000012319733007096408727_);}
	.st7{fill:#ABD9EA;}
	.st8{fill:url(#SVGID_00000131359682147102277570000015061365200458562724_);}
	.st9{fill:#71B9D8;}
	.st10{clip-path:url(#SVGID_00000010275013420845256710000014343199350315243704_);}
	.st11{opacity:0.6;fill:url(#SVGID_00000043414984724565403580000016966689336938241199_);enable-background:new    ;}
	.st12{opacity:0.6;fill:url(#SVGID_00000018201600474584022590000017965280317125743524_);enable-background:new    ;}
	.st13{opacity:0.6;fill:url(#SVGID_00000029030084681386713990000012798705383618889627_);enable-background:new    ;}
	.st14{opacity:0.6;fill:url(#SVGID_00000095337649043350376620000012586883010892433597_);enable-background:new    ;}
	.st15{clip-path:url(#SVGID_00000165207443711365712340000006424550157517313421_);}
	.st16{fill:#3F657D;}
	.st17{fill:#373C3F;}
	.st18{clip-path:url(#SVGID_00000057143867307463232990000016250956399814664604_);fill:#477C99;}
	.st19{fill:none;stroke:#373C3F;stroke-width:8;stroke-linecap:round;stroke-linejoin:round;stroke-miterlimit:10;}
	.st20{fill:none;}
</style>
<g>
	<g>
		<defs>
			<rect id="SVGID_1_" x="189.4" y="-253.9" width="5021.2" height="2593.2"/>
		</defs>
		<clipPath id="SVGID_00000033338021755525461220000007956764825661982910_">
			<use xlink:href="#SVGID_1_"  style="overflow:visible;"/>
		</clipPath>
		
			<radialGradient id="SVGID_00000070118420446370536380000013954632121698374838_" cx="6579.1934" cy="-3428.593" r="2371.1001" gradientTransform="matrix(0 1 1 0 6128.5928 -4208.0928)" gradientUnits="userSpaceOnUse">
			<stop  offset="0.2391" style="stop-color:#236DA8"/>
			<stop  offset="0.3386" style="stop-color:#2770AA"/>
			<stop  offset="0.4412" style="stop-color:#3478AF"/>
			<stop  offset="0.5451" style="stop-color:#4886B7"/>
			<stop  offset="0.6502" style="stop-color:#6599C2"/>
			<stop  offset="0.7559" style="stop-color:#8AB2D1"/>
			<stop  offset="0.8624" style="stop-color:#B8D0E3"/>
			<stop  offset="0.9674" style="stop-color:#EDF3F8"/>
			<stop  offset="1" style="stop-color:#FFFFFF"/>
		</radialGradient>
		
			<circle style="clip-path:url(#SVGID_00000033338021755525461220000007956764825661982910_);fill:url(#SVGID_00000070118420446370536380000013954632121698374838_);" cx="2700" cy="2371.1" r="2371.1"/>
	</g>
	<g>
		<defs>
			<rect id="SVGID_00000101076059476498595180000013677139364852029064_" x="189.4" y="-253.9" width="5021.2" height="2593.2"/>
		</defs>
		<clipPath id="SVGID_00000142166952728994017350000005534130443831842485_">
			<use xlink:href="#SVGID_00000101076059476498595180000013677139364852029064_"  style="overflow:visible;"/>
		</clipPath>
		<g style="clip-path:url(#SVGID_00000142166952728994017350000005534130443831842485_);">
			<path class="st2" d="M2700,2339.6V203.8c589.8,0,1123.7,239.1,1510.2,625.6L2700,2339.6L2700,2339.6z"/>
			<path class="st2" d="M2700,2339.6L2700,2339.6L2700,2339.6z"/>
			<path class="st2" d="M2700,2339.6L2700,2339.6L2700,2339.6z"/>
			<path class="st3" d="M2700,2339.6H564.2c0-589.8,239.1-1123.7,625.6-1510.2L2700,2339.6L2700,2339.6z"/>
			<g class="st4">
				
					<linearGradient id="SVGID_00000109709648425548705430000000223255679485276346_" gradientUnits="userSpaceOnUse" x1="3525.4875" y1="-6988.5273" x2="3756.5723" y2="-6988.5273" gradientTransform="matrix(0.7071 0.7071 0.7809 -0.7809 6566.8188 -6836.4629)">
					<stop  offset="0" style="stop-color:#FFFFFF"/>
					<stop  offset="0.1314" style="stop-color:#FBFBFB"/>
					<stop  offset="0.2577" style="stop-color:#F0F0F0"/>
					<stop  offset="0.382" style="stop-color:#DCDCDC"/>
					<stop  offset="0.5051" style="stop-color:#C1C1C1"/>
					<stop  offset="0.6274" style="stop-color:#9E9E9E"/>
					<stop  offset="0.749" style="stop-color:#737373"/>
					<stop  offset="0.8701" style="stop-color:#404040"/>
					<stop  offset="0.9881" style="stop-color:#060606"/>
					<stop  offset="1" style="stop-color:#000000"/>
				</linearGradient>
				<polygon style="fill:url(#SVGID_00000109709648425548705430000000223255679485276346_);" points="4209.6,833.3 3321.9,1721 
					3158.5,1557.6 4046.2,669.9 				"/>
			</g>
			<g class="st4">
				
					<linearGradient id="SVGID_00000093140602512605791700000011022118170158308533_" gradientUnits="userSpaceOnUse" x1="-6530.9771" y1="-7419.189" x2="-6299.8213" y2="-7419.189" gradientTransform="matrix(0.7071 -0.7071 -0.7809 -0.7809 302.409 -8975.3984)">
					<stop  offset="0" style="stop-color:#FFFFFF"/>
					<stop  offset="0.1314" style="stop-color:#FBFBFB"/>
					<stop  offset="0.2577" style="stop-color:#F0F0F0"/>
					<stop  offset="0.382" style="stop-color:#DCDCDC"/>
					<stop  offset="0.5051" style="stop-color:#C1C1C1"/>
					<stop  offset="0.6274" style="stop-color:#9E9E9E"/>
					<stop  offset="0.749" style="stop-color:#737373"/>
					<stop  offset="0.8701" style="stop-color:#404040"/>
					<stop  offset="0.9881" style="stop-color:#060606"/>
					<stop  offset="1" style="stop-color:#000000"/>
				</linearGradient>
				<polygon style="fill:url(#SVGID_00000093140602512605791700000011022118170158308533_);" points="1197.6,829 2085.3,1716.7 
					1921.9,1880.1 1034.2,992.5 				"/>
			</g>
			<path class="st7" d="M2700,2339.6L1189.8,829.3c386.5-386.5,920.4-625.6,1510.2-625.6V2339.6z"/>
			<g class="st4">
				
					<linearGradient id="SVGID_00000177449681238573651340000012726028242343806107_" gradientUnits="userSpaceOnUse" x1="-1449.7876" y1="-8791.4746" x2="-1218.6875" y2="-8791.4746" gradientTransform="matrix(1 0 0 -1.1043 3917.7876 -8879.125)">
					<stop  offset="0" style="stop-color:#FFFFFF"/>
					<stop  offset="0.1314" style="stop-color:#FBFBFB"/>
					<stop  offset="0.2577" style="stop-color:#F0F0F0"/>
					<stop  offset="0.382" style="stop-color:#DCDCDC"/>
					<stop  offset="0.5051" style="stop-color:#C1C1C1"/>
					<stop  offset="0.6274" style="stop-color:#9E9E9E"/>
					<stop  offset="0.749" style="stop-color:#737373"/>
					<stop  offset="0.8701" style="stop-color:#404040"/>
					<stop  offset="0.9881" style="stop-color:#060606"/>
					<stop  offset="1" style="stop-color:#000000"/>
				</linearGradient>
				<polygon style="fill:url(#SVGID_00000177449681238573651340000012726028242343806107_);" points="2699.1,201.6 2699.1,1457 
					2468,1457 2468,201.6 				"/>
			</g>
			<path class="st9" d="M2700,2339.6L4210.2,829.3c386.5,386.5,625.6,920.4,625.6,1510.2L2700,2339.6L2700,2339.6z"/>
		</g>
	</g>
	<g>
		<defs>
			<rect id="SVGID_00000119082047418157471520000015647190793469951909_" x="189.4" y="-253.9" width="5021.2" height="2593.2"/>
		</defs>
		<clipPath id="SVGID_00000041275931989512410570000012065128966009287590_">
			<use xlink:href="#SVGID_00000119082047418157471520000015647190793469951909_"  style="overflow:visible;"/>
		</clipPath>
		<g style="clip-path:url(#SVGID_00000041275931989512410570000012065128966009287590_);">
			
				<linearGradient id="SVGID_00000029006341769525378820000009618619262906808715_" gradientUnits="userSpaceOnUse" x1="5037.3931" y1="-2360.6929" x2="6547.6934" y2="-2360.6929" gradientTransform="matrix(0 1 1 0 6128.5928 -4208.0928)">
				<stop  offset="0" style="stop-color:#FFFFFF"/>
				<stop  offset="1" style="stop-color:#000000"/>
			</linearGradient>
			<path style="opacity:0.6;fill:url(#SVGID_00000029006341769525378820000009618619262906808715_);enable-background:new    ;" d="
				M2700,2339.6L4210.2,829.3c386.5,386.5,625.6,920.4,625.6,1510.2L2700,2339.6L2700,2339.6z"/>
			
				<linearGradient id="SVGID_00000153707568027662626240000007223543005600556968_" gradientUnits="userSpaceOnUse" x1="4411.8931" y1="-2673.4929" x2="6547.6934" y2="-2673.4929" gradientTransform="matrix(0 1 1 0 6128.5928 -4208.0928)">
				<stop  offset="0" style="stop-color:#FFFFFF"/>
				<stop  offset="1" style="stop-color:#000000"/>
			</linearGradient>
			<path style="opacity:0.6;fill:url(#SVGID_00000153707568027662626240000007223543005600556968_);enable-background:new    ;" d="
				M2700,2339.6V203.8c589.8,0,1123.7,239.1,1510.2,625.6L2700,2339.6L2700,2339.6z"/>
			
				<linearGradient id="SVGID_00000078028807060553648070000011713679298322746299_" gradientUnits="userSpaceOnUse" x1="4411.793" y1="-4183.6929" x2="6547.6934" y2="-4183.6929" gradientTransform="matrix(0 1 1 0 6128.5928 -4208.0928)">
				<stop  offset="0" style="stop-color:#FFFFFF"/>
				<stop  offset="1" style="stop-color:#000000"/>
			</linearGradient>
			<path style="opacity:0.6;fill:url(#SVGID_00000078028807060553648070000011713679298322746299_);enable-background:new    ;" d="
				M2700,2339.6L1189.8,829.3c386.5-386.5,920.4-625.6,1510.2-625.6V2339.6z"/>
			
				<linearGradient id="SVGID_00000099619844038389835180000013029680999531128498_" gradientUnits="userSpaceOnUse" x1="5037.4932" y1="-4496.4932" x2="6547.6934" y2="-4496.4932" gradientTransform="matrix(0 1 1 0 6128.5928 -4208.0928)">
				<stop  offset="0" style="stop-color:#FFFFFF"/>
				<stop  offset="1" style="stop-color:#000000"/>
			</linearGradient>
			<path style="opacity:0.6;fill:url(#SVGID_00000099619844038389835180000013029680999531128498_);enable-background:new    ;" d="
				M2700,2339.6H564.2c0-589.8,239.1-1123.7,625.6-1510.2L2700,2339.6L2700,2339.6z"/>
		</g>
	</g>
	<g>
		<defs>
			<rect id="SVGID_00000139295452379588025920000009338363248107754939_" x="189.4" y="-253.9" width="5021.2" height="2593.2"/>
		</defs>
		<clipPath id="SVGID_00000044887388583465356570000001602513507875852441_">
			<use xlink:href="#SVGID_00000139295452379588025920000009338363248107754939_"  style="overflow:visible;"/>
		</clipPath>
		<g style="clip-path:url(#SVGID_00000044887388583465356570000001602513507875852441_);">
			<circle class="st16" cx="2700.8" cy="2337.3" r="1142.3"/>
			<path class="st17" d="M2700.8,3484c-154.8,0-305-30.3-446.3-90.1c-67.9-28.7-133.5-64.3-194.8-105.7
				c-60.7-41-117.8-88.1-169.7-140c-51.9-51.9-99-109-140-169.7c-41.4-61.3-77-126.8-105.7-194.8c-59.8-141.4-90.1-291.5-90.1-446.3
				s30.3-305,90.1-446.3c28.7-67.9,64.3-133.5,105.7-194.8c41-60.7,88.1-117.8,140-169.7s109-99,169.7-140
				c61.3-41.4,126.8-77,194.8-105.7c141.4-59.8,291.5-90.1,446.3-90.1s305,30.3,446.3,90.1c67.9,28.7,133.5,64.3,194.8,105.7
				c60.7,41,117.8,88.1,169.7,140s99,109,140,169.7c41.4,61.3,77,126.8,105.7,194.8c59.8,141.4,90.1,291.5,90.1,446.3
				s-30.3,305-90.1,446.3c-28.7,67.9-64.3,133.5-105.7,194.8c-41,60.7-88.1,117.8-140,169.7s-109,99-169.7,140
				c-61.3,41.4-126.8,77-194.8,105.7C3005.8,3453.7,2855.6,3484,2700.8,3484z M2700.8,1199.4c-153.6,0-302.6,30.1-442.9,89.4
				c-67.4,28.5-132.5,63.8-193.3,104.9c-60.3,40.7-116.9,87.5-168.4,138.9s-98.2,108.2-138.9,168.4
				c-41.1,60.8-76.4,125.9-104.9,193.3c-59.3,140.3-89.4,289.3-89.4,442.9s30.1,302.6,89.4,442.9c28.5,67.4,63.8,132.5,104.9,193.3
				c40.7,60.3,87.5,116.9,138.9,168.4s108.2,98.2,168.4,138.9c60.8,41.1,125.9,76.4,193.3,104.9c140.3,59.3,289.3,89.4,442.9,89.4
				s302.6-30.1,442.9-89.4c67.4-28.5,132.5-63.8,193.3-104.9c60.3-40.7,116.9-87.5,168.4-138.9s98.2-108.2,138.9-168.4
				c41.1-60.8,76.4-125.9,104.9-193.3c59.3-140.3,89.4-289.3,89.4-442.9s-30.1-302.6-89.4-442.9c-28.5-67.4-63.8-132.5-104.9-193.3
				c-40.7-60.3-87.5-116.9-138.9-168.4s-108.2-98.2-168.4-138.9c-60.8-41.1-125.9-76.4-193.3-104.9
				C3003.4,1229.5,2854.4,1199.4,2700.8,1199.4z"/>
		</g>
	</g>
	<g>
		<defs>
			<rect id="SVGID_00000004531983802803416340000017510377182853685644_" x="189.4" y="-253.9" width="5021.2" height="2593.2"/>
		</defs>
		<clipPath id="SVGID_00000019659244558767272640000008733798304531606429_">
			<use xlink:href="#SVGID_00000004531983802803416340000017510377182853685644_"  style="overflow:visible;"/>
		</clipPath>
		
			<circle style="clip-path:url(#SVGID_00000019659244558767272640000008733798304531606429_);fill:#477C99;" cx="2700" cy="2339.6" r="939.3"/>
	</g>
</g>
<g>
	<g>
		<g>
			<path class="st17" d="M4226.8,1743.8c-22.5,0-41.1-18-41.8-40.6c-0.7-23,17.6-42.3,40.6-43l0,0c23-0.7,42.3,17.6,43,40.6
				s-17.6,42.3-40.6,43C4227.6,1743.8,4227.2,1743.8,4226.8,1743.8z M4225.9,1668.2c-18.6,0.5-33.4,16.1-32.8,34.8
				c0.5,18.3,15.6,32.8,33.8,32.8c0.3,0,0.7,0,1,0c18.6-0.5,33.4-16.1,32.8-34.8c-0.5-18.3-15.6-32.8-33.8-32.8
				C4226.5,1668.2,4226.2,1668.2,4225.9,1668.2L4225.9,1668.2z"/>
			<path class="st17" d="M4226.8,1805.1c-26.4,0-51.4-9.9-70.7-28.1c-20-18.9-31.5-44.5-32.3-72c-1.6-56.8,43.3-104.4,100.1-106
				c10.5-0.3,20.8,1,30.8,3.8c2.1,0.6,3.4,2.8,2.8,4.9c-0.6,2.1-2.8,3.4-4.9,2.8c-9.2-2.6-18.8-3.7-28.4-3.5
				c-52.4,1.5-93.9,45.4-92.4,97.8c0.7,25.4,11.3,49,29.8,66.4s42.6,26.6,68,25.9c25.4-0.7,49-11.3,66.4-29.8s26.6-42.6,25.9-68
				c-0.4-12.8-3.2-25.2-8.5-36.8c-0.9-2,0-4.4,2-5.3c2-0.9,4.4,0,5.3,2c5.7,12.6,8.9,26,9.2,39.9c0.8,27.5-9.2,53.7-28.1,73.7
				s-44.5,31.5-72,32.3C4228.8,1805.1,4227.8,1805.1,4226.8,1805.1z"/>
			<path class="st17" d="M4226.8,1879.6c-95.6,0-174.7-76.3-177.4-172.5c-2.8-97.9,74.6-179.8,172.4-182.6
				c27.2-0.8,53.4,4.5,78,15.6c2,0.9,2.9,3.3,2,5.3s-3.3,2.9-5.3,2c-23.5-10.6-48.6-15.6-74.5-14.9
				c-93.5,2.7-167.3,80.9-164.7,174.4c2.6,91.8,78.2,164.7,169.5,164.7c1.6,0,3.3,0,4.9-0.1c93.5-2.7,167.3-80.9,164.7-174.4
				c-1-35.3-12.7-68.8-33.8-96.9c-1.3-1.8-1-4.3,0.8-5.6s4.3-1,5.6,0.8c22.1,29.4,34.3,64.5,35.4,101.4
				c2.8,97.9-74.6,179.8-172.4,182.6C4230.2,1879.6,4228.5,1879.6,4226.8,1879.6z"/>
			<path class="st17" d="M4224.1,1710.1c-0.9,0-1.7-0.3-2.5-0.9c-1.7-1.4-2-3.9-0.6-5.6l177.9-224.1c1.4-1.7,3.9-2,5.6-0.6
				s2,3.9,0.6,5.6l-177.9,224.1C4226.4,1709.6,4225.3,1710.1,4224.1,1710.1z"/>
			<g>
				<path class="st17" d="M4431.9,1551.2c-1.3,0-2.6-0.2-3.8-0.5l-65.2-16.2c-1.3-0.3-2.4-1.3-2.8-2.6s-0.2-2.7,0.6-3.8l88.1-111.5
					c1-1.2,2.6-1.8,4.1-1.4l54.6,13.5c5.3,1.3,9.5,5.2,11.3,10.3c1.8,5.2,0.8,10.8-2.6,15.1l-71.8,90.8
					C4441.4,1549,4436.7,1551.2,4431.9,1551.2z M4370.8,1528.3l59.1,14.7c3,0.8,6.2-0.3,8.2-2.8l71.8-90.8c1.7-2.2,2.2-4.9,1.3-7.5
					s-3-4.5-5.6-5.2l-52.1-12.9L4370.8,1528.3z"/>
				<path class="st17" d="M4363.4,1534.3c-0.1,0-0.3,0-0.4,0c-1.4-0.1-2.5-0.9-3.2-2.1l-30.8-59.7c-2.9-5.6-2.2-12.3,1.7-17.2
					l71.8-90.8c3.4-4.3,8.6-6.5,14.1-6c5.4,0.5,10.2,3.7,12.7,8.6l25.8,50c0.7,1.4,0.6,3.1-0.4,4.3l-88.1,111.5
					C4365.8,1533.8,4364.6,1534.3,4363.4,1534.3z M4415,1366.4c-2.4,0-4.7,1.1-6.2,3l-71.8,90.8c-1.9,2.5-2.3,5.8-0.8,8.6l27.9,54.2
					l82.7-104.6l-24.6-47.7c-1.3-2.5-3.6-4-6.3-4.3C4415.6,1366.4,4415.3,1366.4,4415,1366.4z"/>
			</g>
		</g>
	</g>
</g>
<g>
	<g>
		<path class="st17" d="M3000.6,747.5c-2.3,0-4.7-0.3-7-0.9c-6.8-1.9-12.5-6.3-16-12.4l-25.1-44c-7.2-12.7-2.8-28.9,9.9-36.1
			l69.6-39.7c2.7-1.6,5.7-2.6,8.8-3.1c1.7-0.3,3.3,0.5,4.1,2L3091,694c0.8,1.5,0.7,3.3-0.4,4.5c-2,2.4-4.4,4.4-7.1,6l-69.6,39.8
			C3009.7,746.4,3005.2,747.5,3000.6,747.5z M3039.3,619.7c-1.2,0.4-2.4,0.9-3.5,1.5l-69.6,39.7c-8.8,5.1-11.9,16.4-6.9,25.2
			l25.1,44c2.4,4.3,6.4,7.4,11.2,8.7c4.8,1.3,9.7,0.7,14-1.8l69.6-39.8c1.1-0.6,2.1-1.4,3.1-2.2L3039.3,619.7z"/>
		<path class="st17" d="M3107.4,711.9c-9.2,0-18.2-4.8-23-13.3l-0.5-0.9l-46.5-81.5c-3.5-6.2-4.4-13.3-2.6-20.1s6.3-12.5,12.4-16
			l57.5-32.9c1-0.6,2.3-0.7,3.4-0.3c1.1,0.4,2,1.3,2.4,2.5c0.3,1,0.8,2,1.4,3.1l53.1,93c0.7,1.2,0.7,2.7,0,3.9s-1.9,2-3.3,2.1
			c-15.6,1-27.9,14.1-27.9,29.8c0,4.7,1.1,9.2,3.2,13.4c1,1.9,0.3,4.2-1.6,5.3l-14.9,8.5C3116.4,710.8,3111.9,711.9,3107.4,711.9z
			 M3104.8,556.4l-53.7,30.7c-4.3,2.4-7.4,6.4-8.7,11.2s-0.7,9.7,1.8,14l0.5,0.8l46.6,81.6c5,8.8,16.4,11.9,25.2,6.9l11.8-6.7
			c-1.6-4.3-2.5-8.9-2.5-13.5c0-17.8,12.4-33,29.3-36.9L3104.8,556.4C3104.9,556.4,3104.9,556.4,3104.8,556.4z"/>
		<path class="st17" d="M3197.7,683.7c-0.9,0-1.8-0.3-2.5-0.8c-0.9-0.7-1.5-1.8-1.5-3c-0.3-6.3-2.5-12.3-6.5-17.2
			c-5.7-7.2-14.2-11.3-23.4-11.3c-0.1,0-0.5,0.1-0.8,0.1c-0.4,0.1-0.9,0.1-1.3,0.2c-1.6,0.1-3-0.7-3.8-2l-53-93.2
			c-0.8-1.5-1.5-2.9-2-4.4c-4.2-12,0.8-25.3,11.9-31.7l63.2-36.1c2.8-1.6,5.7-2.6,8.8-3.1c1.6-0.3,3.3,0.5,4.1,2l86.2,151
			c0.8,1.5,0.7,3.3-0.4,4.5c-2,2.4-4.4,4.4-7.1,6l-63.2,36.1c-2.5,1.4-5.1,2.4-7.9,3C3198.2,683.6,3197.9,683.7,3197.7,683.7z
			 M3163.8,643.4c11.6,0,22.4,5.2,29.6,14.3c3.9,4.9,6.5,10.6,7.6,16.7c0.4-0.2,0.9-0.4,1.3-0.7l63.2-36.1c1.1-0.6,2.1-1.4,3.1-2.2
			l-83.3-145.7c-1.2,0.4-2.3,0.9-3.5,1.5l-63.2,36.1c-7.8,4.4-11.2,13.7-8.3,22.1c0.4,1.1,0.8,2.1,1.4,3.1l51.7,90.9
			C3163.6,643.4,3163.7,643.4,3163.8,643.4z"/>
		<path class="st17" d="M3293.6,652.2c-9.2,0-18.2-4.8-23-13.3l-0.5-0.9l-86.7-151.8c-7.2-12.7-2.8-28.9,9.9-36.1l37.6-21.5
			c6.1-3.5,13.3-4.4,20.1-2.6c6.8,1.9,12.5,6.3,16,12.4l87.2,152.7c7.2,12.7,2.8,28.9-9.9,36.1l0,0l-37.6,21.5
			C3302.6,651,3298.1,652.2,3293.6,652.2z M3244,433c-3.2,0-6.3,0.8-9.1,2.4l-37.6,21.5c-8.8,5.1-11.9,16.4-6.9,25.2l0.5,0.8
			l86.2,151l0.5,0.9c5,8.8,16.4,11.9,25.2,6.9l37.6-21.5c8.8-5.1,11.9-16.4,6.9-25.2l-87.2-152.7c-2.4-4.3-6.4-7.4-11.2-8.7
			C3247.3,433.3,3245.6,433,3244,433z M3342.4,623.7L3342.4,623.7L3342.4,623.7z"/>
		<path class="st17" d="M3163.8,914.2c-2.2,0-4-1.8-4-4v-195c0-2.2,1.8-4,4-4s4,1.8,4,4v195C3167.8,912.4,3166,914.2,3163.8,914.2z"
			/>
		<path class="st17" d="M3114.2,914.2c-0.5,0-0.9-0.1-1.4-0.2c-2.1-0.8-3.1-3.1-2.4-5.1l49.6-134.4c0.8-2.1,3.1-3.1,5.1-2.4
			c2.1,0.8,3.1,3.1,2.4,5.1l-49.6,134.4C3117.3,913.2,3115.8,914.2,3114.2,914.2z"/>
		<path class="st17" d="M3214.7,914.2c-1.6,0-3.2-1-3.8-2.6l-49.6-134.4c-0.8-2.1,0.3-4.4,2.4-5.1c2.1-0.8,4.4,0.3,5.1,2.4
			l49.6,134.4c0.8,2.1-0.3,4.4-2.4,5.1C3215.6,914.1,3215.1,914.2,3214.7,914.2z"/>
		<path class="st17" d="M3163.8,719.2c-14.4,0-27.4-8-33.9-21c-2.6-5.2-4-11.1-4-17c0-19.9,15.5-36.5,35.4-37.8c0.3,0,0.5,0,0.8,0
			l0.5,0.1l0,0c0.4-0.1,0.8-0.2,1.2-0.2c11.6,0,22.4,5.2,29.6,14.3c5,6.3,7.9,13.8,8.2,21.8c0,0.6,0,1.2,0,1.8
			C3201.7,702.2,3184.7,719.2,3163.8,719.2z M3161.4,651.5c-15.4,1.2-27.5,14.2-27.5,29.8c0,4.7,1.1,9.2,3.2,13.4
			c5.1,10.2,15.4,16.6,26.8,16.6c16.5,0,29.9-13.4,29.9-29.9c0-0.5,0-0.9,0-1.4c-0.3-6.4-2.5-12.3-6.5-17.2
			c-5.6-7-13.9-11.1-22.8-11.3l-0.3,0.1c-0.6,0.2-1.2,0.2-1.8,0.2L3161.4,651.5z"/>
	</g>
</g>
<g>
	<g>
		<path class="st17" d="M2064.1,915c-30.6,0-55.8-23-58.6-53.5c-0.2-2,0.8-4,2.6-5c1.8-1,4-0.9,5.6,0.3
			c14.8,10.4,32.2,15.9,50.4,15.9c18.2,0,35.6-5.5,50.4-15.9l0,0c1.7-1.2,3.9-1.3,5.6-0.3c1.8,1,2.8,3,2.6,5
			c-1.3,14.7-8.1,28.2-18.9,38.1C2092.9,909.5,2078.8,915,2064.1,915z M2014.3,866.8c4.9,23.3,25.3,40.2,49.7,40.2
			c12.7,0,24.9-4.7,34.3-13.3c7.9-7.2,13.3-16.6,15.5-26.9c-14.9,9.1-32,13.9-49.7,13.9C2046.4,880.7,2029.3,875.9,2014.3,866.8z"/>
		<path class="st17" d="M2064.1,858.5c-18.9,0-37.2-5.5-52.9-15.9c-3.7-2.5-6-6.4-6.4-10.8l-1.6-17.4c-1.8-19.2-11.8-36.3-27.5-46.9
			c-1.8-1.2-3.7-2.5-5.5-3.9c-19.7-14.5-36-33.7-47.1-55.5c-11.5-22.5-17.5-47.8-17.3-73.3c0.3-42.4,17.3-82.1,47.8-111.9
			s70.6-45.8,113-45.2c41.8,0.6,81,17.4,110.3,47.2c29.4,29.8,45.6,69.3,45.6,111.2c0,25.2-6.1,50.3-17.6,72.6
			c-11.1,21.5-27.3,40.5-46.9,54.9c-1.6,1.2-3.2,2.4-5,3.5c-16.1,10.9-26.3,28.1-28,47.2l-1.6,17.4c-0.4,4.4-2.8,8.4-6.4,10.8
			C2101.2,853,2083,858.5,2064.1,858.5z M2064.1,485.7c-39.4,0-76.6,15.2-105,43c-28.9,28.3-45,66-45.4,106.2
			c-0.4,48,22.5,93.7,61.2,122.3c1.7,1.3,3.5,2.5,5.2,3.7c17.7,12,29.1,31.2,31,52.8l1.6,17.4c0.2,2,1.2,3.8,2.9,4.9
			c14.4,9.6,31.1,14.6,48.4,14.6s34.1-5,48.4-14.6c1.7-1.1,2.7-2.9,2.9-4.9l1.6-17.4c2-21.5,13.5-40.9,31.5-53.1
			c1.7-1.1,3.3-2.3,4.7-3.4c18.6-13.7,34-31.7,44.5-52.2c11.1-21.4,16.7-44.6,16.7-68.9c0-39.8-15.4-77.2-43.3-105.5
			c-27.9-28.3-65.1-44.2-104.8-44.8C2065.6,485.7,2064.8,485.7,2064.1,485.7z"/>
		<path class="st17" d="M2032.8,787.1h-8V662.6h-8.9c-7,0-13-4-15.6-10.5c-2.7-6.4-1.3-13.5,3.7-18.5c4.9-4.9,12-6.3,18.5-3.7
			c6.4,2.7,10.5,8.7,10.5,15.6v8.9h31.3v8H2033v124.7H2032.8z M2015.7,636.8c-2.1,0-4.3,0.7-6.2,2.6c-3.1,3.1-3,7.1-1.9,9.7
			s3.9,5.5,8.3,5.5h8.9v-8.9c0-4.4-2.8-7.1-5.5-8.3C2018.2,637.1,2017,636.8,2015.7,636.8z"/>
		<path class="st17" d="M2103.4,787.1h-8V662.6h-31.3v-8h31.3v-8.9c0-7,4-13,10.5-15.6c6.4-2.7,13.5-1.3,18.5,3.7
			c4.9,4.9,6.3,12,3.7,18.5c-2.7,6.4-8.7,10.5-15.6,10.5h-8.9v124.3H2103.4z M2103.4,654.7h8.9c4.4,0,7.1-2.8,8.3-5.5
			s1.2-6.6-1.9-9.7c-3.1-3.1-7.1-3-9.7-1.9c-2.7,1.1-5.5,3.9-5.5,8.3v8.8H2103.4z"/>
		<g>
			<g id="_x3C_Radial_Repeat_x3E__00000157309328867988056450000004366289567840779187_">
				
					<rect x="1885" y="833.3" transform="matrix(0.707 -0.7072 0.7072 0.707 -35.6991 1588.5065)" class="st17" width="28.6" height="8"/>
			</g>
			<g id="_x3C_Radial_Repeat_x3E__00000055705647077023328940000003543112541674268047_">
				<rect x="1816.3" y="667.7" class="st17" width="28.6" height="8"/>
			</g>
			<g id="_x3C_Radial_Repeat_x3E__00000090276188357583793870000003519820122740861335_">
				
					<rect x="1895.3" y="491.7" transform="matrix(0.7071 -0.7071 0.7071 0.7071 198.5049 1491.1801)" class="st17" width="8" height="28.6"/>
			</g>
			<g id="_x3C_Radial_Repeat_x3E__00000170983846379380701370000011668178705216726196_">
				<rect x="2061" y="423.1" class="st17" width="8" height="28.6"/>
			</g>
			<g id="_x3C_Radial_Repeat_x3E__00000106856575899299201900000013978995875543041969_">
				
					<rect x="2216.4" y="502" transform="matrix(0.7071 -0.7071 0.7071 0.7071 295.5344 1725.5479)" class="st17" width="28.6" height="8"/>
			</g>
			<g id="_x3C_Radial_Repeat_x3E__00000010998270887962483920000009351198368786681504_">
				<rect x="2285.1" y="667.7" class="st17" width="28.6" height="8"/>
			</g>
			<g id="_x3C_Radial_Repeat_x3E__00000181086836469271254830000004332033504644979361_">
				
					<rect x="2226.7" y="823.3" transform="matrix(0.7071 -0.7071 0.7071 0.7071 61.12 1822.6593)" class="st17" width="8" height="28.6"/>
			</g>
		</g>
	</g>
</g>
<g>
	<g>
		<path class="st17" d="M887.5,1770.4c-2.2,0-3.9-1.7-4-3.9l-1.7-70.9c-0.1-2.2,1.7-4,3.9-4.1l52.3-1.3c1,0,2.1,0.4,2.9,1.1
			c0.8,0.7,1.2,1.7,1.2,2.8l0.4,14.9c0.1,6.2,2.7,12,7.2,16.3s10.4,6.6,16.6,6.4l0,0c2.2-0.1,4,1.7,4.1,3.9s-1.7,4-3.9,4.1l0,0
			l-25.9,0.6c-0.7,7.2-3.8,14-8.9,19.4c-6.1,6.3-14.2,9.9-22.9,10.2L887.5,1770.4C887.6,1770.4,887.5,1770.4,887.5,1770.4z
			 M889.9,1699.4l1.5,62.9l17.1-0.4c6.6-0.2,12.8-2.9,17.3-7.7c4.6-4.8,7-11.1,6.8-17.7c0-1.1,0.4-2.1,1.1-2.9
			c0.7-0.8,1.7-1.2,2.8-1.2l8.9-0.2c-0.4-0.4-0.8-0.7-1.2-1.1c-6-5.8-9.5-13.5-9.7-21.9l-0.3-10.9L889.9,1699.4z"/>
		<path class="st17" d="M1217.1,1762.4c-8.4,0-16.4-3.2-22.6-9c-5.4-5.1-8.8-11.7-9.8-18.9l-24.5,0.6h-0.1c-2.2,0-3.9-1.7-4-3.9
			s1.7-4,3.9-4.1l0,0c6.2-0.1,12-2.7,16.2-7.2c4.3-4.5,6.6-10.4,6.4-16.6l-0.4-14.9c-0.1-2.2,1.7-4,3.9-4.1l50.9-1.2
			c1.1,0,2.1,0.4,2.9,1.1c0.8,0.7,1.2,1.7,1.2,2.8l1.7,70.9c0.1,2.2-1.7,4-3.9,4.1l-21.1,0.5
			C1217.6,1762.4,1217.3,1762.4,1217.1,1762.4z M1188.3,1726.4c2.2,0,3.9,1.7,4,3.9c0.2,6.6,2.9,12.8,7.7,17.3
			c4.8,4.6,11,7,17.7,6.8l17.1-0.4l-1.5-62.9l-42.9,1l0.3,10.9c0.2,8.3-2.9,16.3-8.6,22.3c-0.4,0.4-0.8,0.8-1.2,1.2L1188.3,1726.4
			L1188.3,1726.4z"/>
		<path class="st19" d="M1144.3,1455.8c-23-21.9-54.3-35-88.6-34.2c-68.5,1.7-122.7,58.5-121.1,127l3.9,160.5
			c0.4,15,12.8,26.9,27.9,26.6l193.7-4.7c15-0.4,26.9-12.8,26.5-27.9l-3.9-160.5C1181.9,1508.4,1167.3,1477.7,1144.3,1455.8z
			 M1059.8,1594.1c-29.6,0.7-54.2-22.7-54.9-52.4s22.7-54.2,52.4-54.9c29.7-0.7,54.3,22.7,55,52.4
			C1112.9,1568.8,1089.4,1593.4,1059.8,1594.1z"/>
		<path class="st17" d="M1066.8,1896.7c-2.2,0-3.9-1.7-4-3.9l-3.2-130.9c-0.1-2.2,1.7-4,3.9-4.1c2.2,0,4,1.7,4.1,3.9l3.2,130.9
			C1070.9,1894.9,1069.1,1896.7,1066.8,1896.7C1066.9,1896.7,1066.8,1896.7,1066.8,1896.7z"/>
		<path class="st17" d="M1029,1854.8c-2.2,0-3.9-1.7-4-3.9l-2.1-88.1c-0.1-2.2,1.7-4,3.9-4.1c2.2-0.1,4,1.7,4.1,3.9l2.1,88.1
			C1033.1,1852.9,1031.3,1854.8,1029,1854.8C1029.1,1854.8,1029.1,1854.8,1029,1854.8z"/>
		<path class="st17" d="M1102.5,1853.1c-2.2,0-3.9-1.7-4-3.9l-2.1-88.1c-0.1-2.2,1.7-4,3.9-4.1c2.2-0.1,4,1.7,4.1,3.9l2.1,88.1
			C1106.6,1851.2,1104.8,1853,1102.5,1853.1C1102.6,1853.1,1102.5,1853.1,1102.5,1853.1z"/>
	</g>
</g>
<g>
	<path class="st17" d="M838.7,1985.2c0-0.9,0.7-1.7,1.7-1.7H877c1,0,1.7,0.8,1.7,1.7v7.4c0,0.9-0.7,1.7-1.7,1.7h-26.6v14.7h22.2
		c0.9,0,1.7,0.8,1.7,1.7v7.5c0,1-0.8,1.7-1.7,1.7h-22.2v15.7H877c1,0,1.7,0.8,1.7,1.7v7.4c0,0.9-0.7,1.7-1.7,1.7h-36.6
		c-1,0-1.7-0.8-1.7-1.7V1985.2z"/>
	<path class="st17" d="M898.1,1983.9c0.1-0.7,0.6-1.3,1.6-1.3h1.4c0.7,0,1.3,0.4,1.5,0.9l19.8,42.4c0.2,0,0.2,0,0.3,0l19.8-42.4
		c0.3-0.5,0.7-0.9,1.5-0.9h1.4c1,0,1.5,0.6,1.6,1.3l10.6,60.4c0.3,1.3-0.4,2.1-1.6,2.1h-8.2c-0.8,0-1.5-0.7-1.7-1.3l-5.3-34
		c-0.1,0-0.3,0-0.3,0l-15.7,35.3c-0.2,0.5-0.7,1-1.5,1h-1.6c-0.8,0-1.3-0.4-1.5-1l-15.9-35.3c0,0-0.2,0-0.3,0l-5.2,34
		c-0.1,0.6-0.8,1.3-1.6,1.3h-8.1c-1.2,0-1.9-0.8-1.7-2.1L898.1,1983.9z"/>
	<path class="st17" d="M969.9,1985.2c0-0.9,0.7-1.7,1.7-1.7h21.1c11,0,20.1,9,20.1,19.9c0,11.1-9.1,20.2-20,20.2h-11.2v21.1
		c0,0.9-0.8,1.7-1.7,1.7h-8.3c-1,0-1.7-0.8-1.7-1.7L969.9,1985.2L969.9,1985.2z M992,2012.6c5,0,9.3-4,9.3-9.3
		c0-4.9-4.2-8.7-9.3-8.7h-10.4v18.1H992V2012.6z"/>
	<path class="st17" d="M1050.9,1982.5c18,0,32.3,14.5,32.3,32.4c0,18-14.4,32.2-32.3,32.2c-18,0-32.2-14.3-32.2-32.2
		C1018.6,1997,1032.9,1982.5,1050.9,1982.5z M1050.9,2035.5c11.3,0,20.7-9.3,20.7-20.6s-9.3-20.8-20.7-20.8
		c-11.3,0-20.6,9.4-20.6,20.8S1039.6,2035.5,1050.9,2035.5z"/>
	<path class="st17" d="M1089,1985.6c-0.4-1.3,0.4-2.2,1.6-2.2h8.3c0.7,0,1.4,0.6,1.6,1.3l9.3,35.8h0.4l14.3-37c0.2-0.5,0.6-1,1.5-1
		h1.6c0.9,0,1.3,0.4,1.5,1l14.4,37h0.4l9.2-35.8c0.2-0.6,0.9-1.3,1.6-1.3h8.3c1.3,0,2,0.9,1.6,2.2l-17,60.4
		c-0.2,0.7-0.9,1.3-1.6,1.3h-1.4c-0.8,0-1.3-0.4-1.5-1l-16.1-40.7h-0.4l-15.9,40.7c-0.3,0.5-0.6,1-1.5,1h-1.4
		c-0.7,0-1.4-0.5-1.6-1.3L1089,1985.6z"/>
	<path class="st17" d="M1175,1985.2c0-0.9,0.7-1.7,1.7-1.7h36.6c1,0,1.7,0.8,1.7,1.7v7.4c0,0.9-0.7,1.7-1.7,1.7h-26.6v14.7h22.2
		c0.9,0,1.7,0.8,1.7,1.7v7.5c0,1-0.8,1.7-1.7,1.7h-22.2v15.7h26.6c1,0,1.7,0.8,1.7,1.7v7.4c0,0.9-0.7,1.7-1.7,1.7h-36.6
		c-1,0-1.7-0.8-1.7-1.7V1985.2z"/>
	<path class="st17" d="M1227.9,1985.2c0-0.9,0.7-1.7,1.7-1.7h25.7c10.8,0,19.6,8.6,19.6,19.3c0,8.3-5.5,15-13.3,18.1l12.3,22.8
		c0.6,1.2,0,2.6-1.5,2.6h-9.4c-0.8,0-1.3-0.4-1.4-0.8l-11.9-23.8h-10v22.9c0,0.9-0.8,1.7-1.7,1.7h-8.3c-1,0-1.7-0.8-1.7-1.7
		L1227.9,1985.2L1227.9,1985.2z M1254.3,2012.1c4.8,0,8.9-4.1,8.9-9.2c0-4.8-4.1-8.7-8.9-8.7h-14.6v17.9H1254.3z"/>
	<path class="st17" d="M722.5,2104l-20.5-30c-0.7-1.2,0-2.6,1.4-2.6h9.2c0.7,0,1.2,0.4,1.4,0.8l14.4,20.7l14.4-20.7
		c0.3-0.4,0.7-0.8,1.4-0.8h9.3c1.4,0,2.2,1.4,1.4,2.6l-20.8,29.9v28.7c0,0.9-0.8,1.7-1.7,1.7h-8.3c-1,0-1.7-0.8-1.7-1.7L722.5,2104
		L722.5,2104z"/>
	<path class="st17" d="M789.4,2070.5c18,0,32.3,14.5,32.3,32.4c0,18-14.4,32.2-32.3,32.2c-18,0-32.2-14.3-32.2-32.2
		S771.5,2070.5,789.4,2070.5z M789.4,2123.5c11.3,0,20.7-9.3,20.7-20.6s-9.3-20.8-20.7-20.8c-11.3,0-20.6,9.4-20.6,20.8
		S778.1,2123.5,789.4,2123.5z"/>
	<path class="st17" d="M832.6,2073.1c0-0.9,0.8-1.7,1.7-1.7h8.5c1,0,1.7,0.8,1.7,1.7v36.7c0,7.6,5.2,13.7,13,13.7s13.1-6,13.1-13.6
		v-36.8c0-0.9,0.7-1.7,1.7-1.7h8.5c0.9,0,1.7,0.8,1.7,1.7v37.4c0,13.7-10.9,24.7-25.1,24.7c-14.1,0-25-11-25-24.7v-37.4H832.6z"/>
	<path class="st17" d="M898.1,2073.1c0-0.9,0.7-1.7,1.7-1.7h25.7c10.8,0,19.6,8.6,19.6,19.3c0,8.3-5.5,15-13.3,18.1l12.3,22.8
		c0.6,1.2,0,2.6-1.5,2.6h-9.4c-0.8,0-1.3-0.4-1.4-0.8l-11.9-23.8h-10v22.9c0,0.9-0.8,1.7-1.7,1.7h-8.3c-1,0-1.7-0.8-1.7-1.7
		L898.1,2073.1L898.1,2073.1z M924.5,2100.1c4.8,0,8.9-4.1,8.9-9.2c0-4.8-4.1-8.7-8.9-8.7h-14.6v17.9H924.5z"/>
	<path class="st17" d="M977.8,2073.1c0-0.9,0.7-1.7,1.7-1.7h36.6c1,0,1.7,0.8,1.7,1.7v7.4c0,0.9-0.7,1.7-1.7,1.7h-26.6v14.7h22.2
		c0.9,0,1.7,0.8,1.7,1.7v7.5c0,1-0.8,1.7-1.7,1.7h-22.2v15.7h26.6c1,0,1.7,0.8,1.7,1.7v7.4c0,0.9-0.7,1.7-1.7,1.7h-36.6
		c-1,0-1.7-0.8-1.7-1.7V2073.1z"/>
	<path class="st17" d="M1037.2,2071.9c0.1-0.7,0.6-1.3,1.6-1.3h1.4c0.7,0,1.3,0.4,1.5,0.9l19.8,42.4c0.2,0,0.2,0,0.3,0l19.8-42.4
		c0.3-0.5,0.7-0.9,1.5-0.9h1.4c1,0,1.5,0.6,1.6,1.3l10.6,60.4c0.3,1.3-0.4,2.1-1.6,2.1h-8.2c-0.8,0-1.5-0.7-1.7-1.3l-5.3-34
		c-0.1,0-0.3,0-0.3,0l-15.7,35.3c-0.2,0.5-0.7,1-1.5,1h-1.6c-0.8,0-1.3-0.4-1.5-1l-15.9-35.3c0,0-0.2,0-0.3,0l-5.2,34
		c-0.1,0.6-0.8,1.3-1.6,1.3h-8.1c-1.2,0-1.9-0.8-1.7-2.1L1037.2,2071.9z"/>
	<path class="st17" d="M1109,2073.1c0-0.9,0.7-1.7,1.7-1.7h21.1c11,0,20.1,9,20.1,19.9c0,11.1-9.1,20.2-20,20.2h-11.2v21.1
		c0,0.9-0.8,1.7-1.7,1.7h-8.3c-1,0-1.7-0.8-1.7-1.7V2073.1z M1131.1,2100.5c5,0,9.3-4,9.3-9.3c0-4.9-4.2-8.7-9.3-8.7h-10.4v18.1
		h10.4V2100.5z"/>
	<path class="st17" d="M1162.2,2073.1c0-0.9,0.7-1.7,1.7-1.7h8.3c0.9,0,1.7,0.8,1.7,1.7v50.4h22.9c1,0,1.7,0.8,1.7,1.7v7.4
		c0,0.9-0.7,1.7-1.7,1.7h-32.9c-1,0-1.7-0.8-1.7-1.7V2073.1z"/>
	<path class="st17" d="M1234.7,2070.5c18,0,32.3,14.5,32.3,32.4c0,18-14.4,32.2-32.3,32.2c-18,0-32.2-14.3-32.2-32.2
		S1216.8,2070.5,1234.7,2070.5z M1234.7,2123.5c11.3,0,20.7-9.3,20.7-20.6s-9.3-20.8-20.7-20.8c-11.3,0-20.6,9.4-20.6,20.8
		S1223.4,2123.5,1234.7,2123.5z"/>
	<path class="st17" d="M1289.8,2104l-20.5-30c-0.7-1.2,0-2.6,1.4-2.6h9.2c0.7,0,1.2,0.4,1.4,0.8l14.4,20.7l14.4-20.7
		c0.3-0.4,0.7-0.8,1.4-0.8h9.3c1.4,0,2.2,1.4,1.4,2.6l-20.8,29.9v28.7c0,0.9-0.8,1.7-1.7,1.7h-8.3c-1,0-1.7-0.8-1.7-1.7L1289.8,2104
		L1289.8,2104z"/>
	<path class="st17" d="M1330.1,2073.1c0-0.9,0.7-1.7,1.7-1.7h36.6c1,0,1.7,0.8,1.7,1.7v7.4c0,0.9-0.7,1.7-1.7,1.7h-26.6v14.7h22.2
		c0.9,0,1.7,0.8,1.7,1.7v7.5c0,1-0.8,1.7-1.7,1.7h-22.2v15.7h26.6c1,0,1.7,0.8,1.7,1.7v7.4c0,0.9-0.7,1.7-1.7,1.7h-36.6
		c-1,0-1.7-0.8-1.7-1.7V2073.1z"/>
	<path class="st17" d="M1383,2073.1c0-0.9,0.7-1.7,1.7-1.7h36.6c1,0,1.7,0.8,1.7,1.7v7.4c0,0.9-0.7,1.7-1.7,1.7h-26.6v14.7h22.2
		c0.9,0,1.7,0.8,1.7,1.7v7.5c0,1-0.8,1.7-1.7,1.7h-22.2v15.7h26.6c1,0,1.7,0.8,1.7,1.7v7.4c0,0.9-0.7,1.7-1.7,1.7h-36.6
		c-1,0-1.7-0.8-1.7-1.7V2073.1z"/>
</g>
<g>
	<path class="st17" d="M1756.7,1014.2c0-0.9,0.7-1.7,1.7-1.7h36.6c1,0,1.7,0.8,1.7,1.7v7.4c0,0.9-0.7,1.7-1.7,1.7h-26.6v14.7h22.2
		c0.9,0,1.7,0.8,1.7,1.7v7.5c0,1-0.8,1.7-1.7,1.7h-22.2v15.7h26.6c1,0,1.7,0.8,1.7,1.7v7.4c0,0.9-0.7,1.7-1.7,1.7h-36.6
		c-1,0-1.7-0.8-1.7-1.7V1014.2z"/>
	<path class="st17" d="M1809.5,1013.2c0-0.9,0.8-1.6,1.7-1.6h2.2l37.4,39.7h0.1v-37.1c0-0.9,0.7-1.7,1.7-1.7h8.3
		c0.9,0,1.7,0.8,1.7,1.7v60.5c0,0.9-0.8,1.6-1.7,1.6h-2.2l-37.5-41.2h-0.1v38.6c0,0.9-0.7,1.7-1.7,1.7h-8.2c-0.9,0-1.7-0.8-1.7-1.7
		L1809.5,1013.2L1809.5,1013.2z"/>
	<path class="st17" d="M1906.7,1011.6c8.1,0,15.8,3.1,21.9,8.4c0.7,0.7,0.8,1.8,0.1,2.5l-5.6,5.8c-0.7,0.7-1.5,0.7-2.3,0
		c-3.9-3.4-8.6-5.2-13.6-5.2c-11.2,0-20.1,9.6-20.1,20.8c0,11.1,8.9,20.6,20.2,20.6c5,0,8.9-1.5,10.7-2.2v-7.6h-7.2
		c-1,0-1.7-0.7-1.7-1.6v-7.1c0-1,0.7-1.7,1.7-1.7h17.2c0.9,0,1.6,0.8,1.6,1.7v23c0,0.7-0.4,1.2-0.7,1.4c0,0-9.3,5.8-22.3,5.8
		c-17.9,0-32.2-14.2-32.2-32.2C1874.5,1026,1888.8,1011.6,1906.7,1011.6z"/>
	<path class="st17" d="M1934.7,1073l27.9-60.5c0.3-0.5,0.7-1,1.5-1h0.9c0.9,0,1.3,0.4,1.5,1l27.7,60.5c0.5,1.2-0.2,2.3-1.5,2.3h-7.8
		c-1.3,0-2-0.5-2.6-1.8l-4.4-9.7H1951l-4.4,9.7c-0.4,0.9-1.2,1.8-2.6,1.8h-7.8C1934.9,1075.3,1934.2,1074.2,1934.7,1073z
		 M1973.5,1053.9l-9-19.8h-0.3l-8.8,19.8H1973.5z"/>
	<path class="st17" d="M2029.8,1011.6c8.1,0,15.8,3.1,21.9,8.4c0.7,0.7,0.8,1.8,0.1,2.5l-5.6,5.8c-0.7,0.7-1.5,0.7-2.3,0
		c-3.9-3.4-8.6-5.2-13.6-5.2c-11.2,0-20.1,9.6-20.1,20.8c0,11.1,8.9,20.6,20.2,20.6c5,0,8.9-1.5,10.7-2.2v-7.6h-7.2
		c-1,0-1.7-0.7-1.7-1.6v-7.1c0-1,0.7-1.7,1.7-1.7h17.2c0.9,0,1.6,0.8,1.6,1.7v23c0,0.7-0.4,1.2-0.7,1.4c0,0-9.3,5.8-22.3,5.8
		c-17.9,0-32.2-14.2-32.2-32.2C1997.5,1026,2011.9,1011.6,2029.8,1011.6z"/>
	<path class="st17" d="M2066,1014.2c0-0.9,0.7-1.7,1.7-1.7h36.6c1,0,1.7,0.8,1.7,1.7v7.4c0,0.9-0.7,1.7-1.7,1.7h-26.6v14.7h22.2
		c0.9,0,1.7,0.8,1.7,1.7v7.5c0,1-0.8,1.7-1.7,1.7h-22.2v15.7h26.6c1,0,1.7,0.8,1.7,1.7v7.4c0,0.9-0.7,1.7-1.7,1.7h-36.6
		c-1,0-1.7-0.8-1.7-1.7V1014.2z"/>
	<path class="st17" d="M2150.7,1045.1l-20.5-30c-0.7-1.2,0-2.6,1.4-2.6h9.2c0.7,0,1.2,0.4,1.4,0.8l14.4,20.7l14.4-20.7
		c0.3-0.4,0.7-0.8,1.4-0.8h9.3c1.4,0,2.2,1.4,1.4,2.6l-20.8,29.9v28.7c0,0.9-0.8,1.7-1.7,1.7h-8.3c-1,0-1.7-0.8-1.7-1.7v-28.6
		H2150.7z"/>
	<path class="st17" d="M2217.6,1011.6c18,0,32.3,14.5,32.3,32.4c0,18-14.4,32.2-32.3,32.2c-18,0-32.2-14.3-32.2-32.2
		C2185.4,1026,2199.7,1011.6,2217.6,1011.6z M2217.6,1064.6c11.3,0,20.7-9.3,20.7-20.6s-9.3-20.8-20.7-20.8
		c-11.3,0-20.6,9.4-20.6,20.8S2206.3,1064.6,2217.6,1064.6z"/>
	<path class="st17" d="M2260.8,1014.2c0-0.9,0.8-1.7,1.7-1.7h8.5c1,0,1.7,0.8,1.7,1.7v36.7c0,7.6,5.2,13.7,13,13.7s13.1-6,13.1-13.6
		v-36.8c0-0.9,0.7-1.7,1.7-1.7h8.5c0.9,0,1.7,0.8,1.7,1.7v37.4c0,13.7-10.9,24.7-25.1,24.7c-14.1,0-25-11-25-24.7v-37.4H2260.8z"/>
	<path class="st17" d="M2326.3,1014.2c0-0.9,0.7-1.7,1.7-1.7h25.7c10.8,0,19.6,8.6,19.6,19.3c0,8.3-5.5,15-13.3,18.1l12.3,22.8
		c0.6,1.2,0,2.6-1.5,2.6h-9.4c-0.8,0-1.3-0.4-1.4-0.8l-11.9-23.8h-10v22.9c0,0.9-0.8,1.7-1.7,1.7h-8.3c-1,0-1.7-0.8-1.7-1.7v-59.4
		H2326.3z M2352.7,1041.1c4.8,0,8.9-4.1,8.9-9.2c0-4.8-4.1-8.7-8.9-8.7h-14.6v17.9L2352.7,1041.1L2352.7,1041.1z"/>
	<path class="st17" d="M1843.8,1099.5c9.1,0,15.6,2.9,21.7,8.4c0.8,0.7,0.8,1.8,0.1,2.5l-5.5,5.7c-0.6,0.7-1.5,0.7-2.2,0
		c-3.8-3.3-8.8-5.3-13.8-5.3c-11.5,0-20,9.6-20,20.9c0,11.2,8.6,20.8,20.1,20.8c5.4,0,10-2.1,13.7-5.1c0.7-0.6,1.7-0.5,2.2,0
		l5.6,5.7c0.7,0.6,0.5,1.8-0.1,2.4c-6.1,5.9-13.8,8.7-21.8,8.7c-18,0-32.4-14.3-32.4-32.2C1811.4,1114,1825.9,1099.5,1843.8,1099.5z
		"/>
	<path class="st17" d="M1876.5,1102.1c0-0.9,0.8-1.7,1.7-1.7h8.5c1,0,1.7,0.8,1.7,1.7v36.7c0,7.6,5.2,13.7,13,13.7s13.1-6,13.1-13.6
		v-36.8c0-0.9,0.7-1.7,1.7-1.7h8.5c0.9,0,1.7,0.8,1.7,1.7v37.4c0,13.7-10.9,24.7-25.1,24.7c-14.1,0-25-11-25-24.7v-37.4H1876.5z"/>
	<path class="st17" d="M1938.3,1154.5l3.2-5.6c0.7-1.3,2.2-1.3,3.1-0.6c0.4,0.3,7.7,5.6,13.6,5.6c4.7,0,8.2-3.1,8.2-6.9
		c0-4.6-3.9-7.7-11.4-10.8c-8.4-3.4-16.9-8.8-16.9-19.4c0-8,5.9-17.2,20.2-17.2c9.2,0,16.2,4.7,18,6c0.9,0.5,1.2,2.1,0.5,3l-3.4,5.1
		c-0.7,1.1-2.1,1.8-3.1,1.1c-0.7-0.4-7.5-4.9-12.5-4.9c-5.1,0-7.9,3.4-7.9,6.3c0,4.2,3.3,7.1,10.6,10.1c8.7,3.5,18.8,8.7,18.8,20.3
		c0,9.3-8,17.8-20.7,17.8c-11.3,0-18-5.3-19.8-7C1938,1156.4,1937.5,1155.9,1938.3,1154.5z"/>
	<path class="st17" d="M1999.1,1111.2h-13.7c-1,0-1.7-0.8-1.7-1.7v-7.4c0-0.9,0.7-1.7,1.7-1.7h39.3c1,0,1.7,0.8,1.7,1.7v7.4
		c0,0.9-0.7,1.7-1.7,1.7H2011v50.4c0,0.9-0.8,1.7-1.7,1.7h-8.4c-0.9,0-1.7-0.8-1.7-1.7v-50.4H1999.1z"/>
	<path class="st17" d="M2062.8,1099.5c18,0,32.3,14.5,32.3,32.4c0,18-14.4,32.2-32.3,32.2c-18,0-32.2-14.3-32.2-32.2
		C2030.6,1114,2044.9,1099.5,2062.8,1099.5z M2062.8,1152.5c11.3,0,20.7-9.3,20.7-20.6s-9.3-20.8-20.7-20.8
		c-11.3,0-20.6,9.4-20.6,20.8S2051.5,1152.5,2062.8,1152.5z"/>
	<path class="st17" d="M2113.5,1100.9c0.1-0.7,0.6-1.3,1.6-1.3h1.4c0.7,0,1.3,0.4,1.5,0.9l19.8,42.4c0.2,0,0.2,0,0.3,0l19.8-42.4
		c0.3-0.5,0.7-0.9,1.5-0.9h1.4c1,0,1.5,0.6,1.6,1.3l10.6,60.4c0.3,1.3-0.4,2.1-1.6,2.1h-8.2c-0.8,0-1.5-0.7-1.7-1.3l-5.3-34
		c-0.1,0-0.3,0-0.3,0l-15.7,35.3c-0.2,0.5-0.7,1-1.5,1h-1.6c-0.8,0-1.3-0.4-1.5-1l-15.9-35.3c0,0-0.2,0-0.3,0l-5.2,34
		c-0.1,0.6-0.8,1.3-1.6,1.3h-8.1c-1.2,0-1.9-0.8-1.7-2.1L2113.5,1100.9z"/>
	<path class="st17" d="M2185.4,1102.1c0-0.9,0.7-1.7,1.7-1.7h36.6c1,0,1.7,0.8,1.7,1.7v7.4c0,0.9-0.7,1.7-1.7,1.7h-26.6v14.7h22.2
		c0.9,0,1.7,0.8,1.7,1.7v7.5c0,1-0.8,1.7-1.7,1.7h-22.2v15.7h26.6c1,0,1.7,0.8,1.7,1.7v7.4c0,0.9-0.7,1.7-1.7,1.7h-36.6
		c-1,0-1.7-0.8-1.7-1.7V1102.1z"/>
	<path class="st17" d="M2238.2,1102.1c0-0.9,0.7-1.7,1.7-1.7h25.7c10.8,0,19.6,8.6,19.6,19.3c0,8.3-5.5,15-13.3,18.1l12.3,22.8
		c0.6,1.2,0,2.6-1.5,2.6h-9.4c-0.8,0-1.3-0.4-1.4-0.8l-11.9-23.8h-10v22.9c0,0.9-0.8,1.7-1.7,1.7h-8.3c-1,0-1.7-0.8-1.7-1.7v-59.4
		H2238.2z M2264.6,1129.1c4.8,0,8.9-4.1,8.9-9.2c0-4.8-4.1-8.7-8.9-8.7H2250v17.9L2264.6,1129.1L2264.6,1129.1z"/>
	<path class="st17" d="M2294.3,1154.5l3.2-5.6c0.7-1.3,2.2-1.3,3.1-0.6c0.4,0.3,7.7,5.6,13.6,5.6c4.7,0,8.2-3.1,8.2-6.9
		c0-4.6-3.9-7.7-11.4-10.8c-8.4-3.4-16.9-8.8-16.9-19.4c0-8,5.9-17.2,20.2-17.2c9.2,0,16.2,4.7,18,6c0.9,0.5,1.2,2.1,0.5,3l-3.4,5.1
		c-0.7,1.1-2.1,1.8-3.1,1.1c-0.7-0.4-7.5-4.9-12.5-4.9c-5.1,0-7.9,3.4-7.9,6.3c0,4.2,3.3,7.1,10.6,10.1c8.7,3.5,18.8,8.7,18.8,20.3
		c0,9.3-8,17.8-20.7,17.8c-11.3,0-18-5.3-19.8-7C2294,1156.4,2293.5,1155.9,2294.3,1154.5z"/>
</g>
<g>
	<path class="st17" d="M2853.1,972.6c18,0,32.3,14.5,32.3,32.4c0,18-14.4,32.2-32.3,32.2s-32.2-14.3-32.2-32.2
		C2820.9,987,2835.2,972.6,2853.1,972.6z M2853.1,1025.6c11.3,0,20.7-9.3,20.7-20.6s-9.3-20.8-20.7-20.8s-20.6,9.4-20.6,20.8
		S2841.8,1025.6,2853.1,1025.6z"/>
	<path class="st17" d="M2897.2,975.2c0-0.9,0.7-1.7,1.7-1.7h21.1c11,0,20.1,9,20.1,19.9c0,11.1-9.1,20.2-20,20.2h-11.2v21.1
		c0,0.9-0.8,1.7-1.7,1.7h-8.3c-1,0-1.7-0.8-1.7-1.7L2897.2,975.2L2897.2,975.2z M2919.3,1002.6c5,0,9.3-4,9.3-9.3
		c0-4.9-4.2-8.7-9.3-8.7h-10.4v18.1L2919.3,1002.6L2919.3,1002.6z"/>
	<path class="st17" d="M2958.9,984.2h-13.7c-1,0-1.7-0.8-1.7-1.7v-7.4c0-0.9,0.7-1.7,1.7-1.7h39.3c1,0,1.7,0.8,1.7,1.7v7.4
		c0,0.9-0.7,1.7-1.7,1.7h-13.7v50.4c0,0.9-0.8,1.7-1.7,1.7h-8.4c-0.9,0-1.7-0.8-1.7-1.7v-50.4H2958.9z"/>
	<path class="st17" d="M2995.4,975.2c0-0.9,0.8-1.7,1.7-1.7h8.4c0.9,0,1.7,0.8,1.7,1.7v59.5c0,0.9-0.8,1.7-1.7,1.7h-8.4
		c-0.9,0-1.7-0.8-1.7-1.7V975.2z"/>
	<path class="st17" d="M3030.1,973.9c0.1-0.7,0.6-1.3,1.6-1.3h1.4c0.7,0,1.3,0.4,1.5,0.9l19.8,42.4c0.2,0,0.2,0,0.3,0l19.8-42.4
		c0.3-0.5,0.7-0.9,1.5-0.9h1.4c1,0,1.5,0.6,1.6,1.3l10.6,60.4c0.3,1.3-0.4,2.1-1.6,2.1h-8.2c-0.8,0-1.5-0.7-1.7-1.3l-5.3-34
		c-0.1,0-0.3,0-0.3,0l-15.7,35.3c-0.2,0.5-0.7,1-1.5,1h-1.6c-0.8,0-1.3-0.4-1.5-1l-15.9-35.3c0,0-0.2,0-0.3,0l-5.2,34
		c-0.1,0.6-0.8,1.3-1.6,1.3h-8.1c-1.2,0-1.9-0.8-1.7-2.1L3030.1,973.9z"/>
	<path class="st17" d="M3102,975.2c0-0.9,0.8-1.7,1.7-1.7h8.4c0.9,0,1.7,0.8,1.7,1.7v59.5c0,0.9-0.8,1.7-1.7,1.7h-8.4
		c-0.9,0-1.7-0.8-1.7-1.7V975.2z"/>
	<path class="st17" d="M3124.2,1033l26.8-48.3v-0.4h-22.5c-0.9,0-1.7-0.8-1.7-1.7v-7.5c0-0.9,0.8-1.7,1.7-1.7h37.5
		c0.9,0,1.7,0.8,1.7,1.7v1.2l-26.4,49v0.2h22.9c1,0,1.7,0.8,1.7,1.7v7.5c0,0.9-0.7,1.7-1.7,1.7h-38.4c-0.9,0-1.7-0.8-1.7-1.7
		L3124.2,1033L3124.2,1033z"/>
	<path class="st17" d="M3178.4,975.2c0-0.9,0.7-1.7,1.7-1.7h36.6c1,0,1.7,0.8,1.7,1.7v7.4c0,0.9-0.7,1.7-1.7,1.7h-26.6V999h22.2
		c0.9,0,1.7,0.8,1.7,1.7v7.5c0,1-0.8,1.7-1.7,1.7h-22.2v15.7h26.6c1,0,1.7,0.8,1.7,1.7v7.4c0,0.9-0.7,1.7-1.7,1.7h-36.6
		c-1,0-1.7-0.8-1.7-1.7V975.2z"/>
	<path class="st17" d="M3263.1,1006.1l-20.5-30c-0.7-1.2,0-2.6,1.4-2.6h9.2c0.7,0,1.2,0.4,1.4,0.8L3269,995l14.4-20.7
		c0.3-0.4,0.7-0.8,1.4-0.8h9.3c1.4,0,2.2,1.4,1.4,2.6l-20.8,29.9v28.7c0,0.9-0.8,1.7-1.7,1.7h-8.3c-1,0-1.7-0.8-1.7-1.7v-28.6
		H3263.1z"/>
	<path class="st17" d="M3330.1,972.6c18,0,32.3,14.5,32.3,32.4c0,18-14.4,32.2-32.3,32.2s-32.2-14.3-32.2-32.2
		C3297.8,987,3312.1,972.6,3330.1,972.6z M3330.1,1025.6c11.3,0,20.7-9.3,20.7-20.6s-9.3-20.8-20.7-20.8s-20.6,9.4-20.6,20.8
		S3318.8,1025.6,3330.1,1025.6z"/>
	<path class="st17" d="M3373.3,975.2c0-0.9,0.8-1.7,1.7-1.7h8.5c1,0,1.7,0.8,1.7,1.7v36.7c0,7.6,5.2,13.7,13,13.7s13.1-6,13.1-13.6
		v-36.8c0-0.9,0.7-1.7,1.7-1.7h8.5c0.9,0,1.7,0.8,1.7,1.7v37.4c0,13.7-10.9,24.7-25.1,24.7c-14.1,0-25-11-25-24.7v-37.4H3373.3z"/>
	<path class="st17" d="M3438.8,975.2c0-0.9,0.7-1.7,1.7-1.7h25.7c10.8,0,19.6,8.6,19.6,19.3c0,8.3-5.5,15-13.3,18.1l12.3,22.8
		c0.6,1.2,0,2.6-1.5,2.6h-9.4c-0.8,0-1.3-0.4-1.4-0.8l-11.9-23.8h-10v22.9c0,0.9-0.8,1.7-1.7,1.7h-8.3c-1,0-1.7-0.8-1.7-1.7v-59.4
		H3438.8z M3465.2,1002.1c4.8,0,8.9-4.1,8.9-9.2c0-4.8-4.1-8.7-8.9-8.7h-14.6v17.9L3465.2,1002.1L3465.2,1002.1z"/>
	<path class="st17" d="M2911.2,1060.5c18,0,32.3,14.5,32.3,32.4c0,18-14.4,32.2-32.3,32.2s-32.2-14.3-32.2-32.2
		C2879,1075,2893.2,1060.5,2911.2,1060.5z M2911.2,1113.5c11.3,0,20.7-9.3,20.7-20.6s-9.3-20.8-20.7-20.8s-20.6,9.4-20.6,20.8
		S2899.9,1113.5,2911.2,1113.5z"/>
	<path class="st17" d="M2955.3,1063.1c0-0.9,0.7-1.7,1.7-1.7h21.1c11,0,20.1,9,20.1,19.9c0,11.1-9.1,20.2-20,20.2H2967v21.1
		c0,0.9-0.8,1.7-1.7,1.7h-8.3c-1,0-1.7-0.8-1.7-1.7V1063.1z M2977.4,1090.5c5,0,9.3-4,9.3-9.3c0-4.9-4.2-8.7-9.3-8.7H2967v18.1
		L2977.4,1090.5L2977.4,1090.5z"/>
	<path class="st17" d="M3008.5,1063.1c0-0.9,0.7-1.7,1.7-1.7h36.6c1,0,1.7,0.8,1.7,1.7v7.4c0,0.9-0.7,1.7-1.7,1.7h-26.6v14.7h22.2
		c0.9,0,1.7,0.8,1.7,1.7v7.5c0,1-0.8,1.7-1.7,1.7h-22.2v15.7h26.6c1,0,1.7,0.8,1.7,1.7v7.4c0,0.9-0.7,1.7-1.7,1.7h-36.6
		c-1,0-1.7-0.8-1.7-1.7V1063.1z"/>
	<path class="st17" d="M3061.3,1063.1c0-0.9,0.7-1.7,1.7-1.7h25.7c10.8,0,19.6,8.6,19.6,19.3c0,8.3-5.5,15-13.3,18.1l12.3,22.8
		c0.6,1.2,0,2.6-1.5,2.6h-9.4c-0.8,0-1.3-0.4-1.4-0.8l-11.9-23.8h-10v22.9c0,0.9-0.8,1.7-1.7,1.7h-8.3c-1,0-1.7-0.8-1.7-1.7v-59.4
		H3061.3z M3087.7,1090.1c4.8,0,8.9-4.1,8.9-9.2c0-4.8-4.1-8.7-8.9-8.7h-14.6v17.9L3087.7,1090.1L3087.7,1090.1z"/>
	<path class="st17" d="M3113,1122l27.9-60.5c0.3-0.5,0.7-1,1.5-1h0.9c0.9,0,1.3,0.4,1.5,1l27.7,60.5c0.5,1.2-0.2,2.3-1.5,2.3h-7.8
		c-1.3,0-2-0.5-2.6-1.8l-4.4-9.7h-26.9l-4.4,9.7c-0.4,0.9-1.2,1.8-2.6,1.8h-7.8C3113.2,1124.3,3112.4,1123.1,3113,1122z
		 M3151.8,1102.8l-9-19.8h-0.3l-8.8,19.8H3151.8z"/>
	<path class="st17" d="M3185.8,1072.2h-13.7c-1,0-1.7-0.8-1.7-1.7v-7.4c0-0.9,0.7-1.7,1.7-1.7h39.3c1,0,1.7,0.8,1.7,1.7v7.4
		c0,0.9-0.7,1.7-1.7,1.7h-13.7v50.4c0,0.9-0.8,1.7-1.7,1.7h-8.4c-0.9,0-1.7-0.8-1.7-1.7v-50.4H3185.8z"/>
	<path class="st17" d="M3222.4,1063.1c0-0.9,0.8-1.7,1.7-1.7h8.4c0.9,0,1.7,0.8,1.7,1.7v59.5c0,0.9-0.8,1.7-1.7,1.7h-8.4
		c-0.9,0-1.7-0.8-1.7-1.7V1063.1z"/>
	<path class="st17" d="M3278.3,1060.5c18,0,32.3,14.5,32.3,32.4c0,18-14.4,32.2-32.3,32.2s-32.2-14.3-32.2-32.2
		C3246,1075,3260.3,1060.5,3278.3,1060.5z M3278.3,1113.5c11.3,0,20.7-9.3,20.7-20.6s-9.3-20.8-20.7-20.8s-20.6,9.4-20.6,20.8
		S3267,1113.5,3278.3,1113.5z"/>
	<path class="st17" d="M3322.4,1062.1c0-0.9,0.8-1.6,1.7-1.6h2.2l37.4,39.7h0.1v-37.1c0-0.9,0.7-1.7,1.7-1.7h8.3
		c0.9,0,1.7,0.8,1.7,1.7v60.5c0,0.9-0.8,1.6-1.7,1.6h-2.2l-37.5-41.2h-0.1v38.6c0,0.9-0.7,1.7-1.7,1.7h-8.2c-0.9,0-1.7-0.8-1.7-1.7
		V1062.1z"/>
	<path class="st17" d="M3388.1,1115.5l3.2-5.6c0.7-1.3,2.2-1.3,3.1-0.6c0.4,0.3,7.7,5.6,13.6,5.6c4.7,0,8.2-3.1,8.2-6.9
		c0-4.6-3.9-7.7-11.4-10.8c-8.4-3.4-16.9-8.8-16.9-19.4c0-8,5.9-17.2,20.2-17.2c9.2,0,16.2,4.7,18,6c0.9,0.5,1.2,2.1,0.5,3l-3.4,5.1
		c-0.7,1.1-2.1,1.8-3.1,1.1c-0.7-0.4-7.5-4.9-12.5-4.9c-5.1,0-7.9,3.4-7.9,6.3c0,4.2,3.3,7.1,10.6,10.1c8.7,3.5,18.8,8.7,18.8,20.3
		c0,9.3-8,17.8-20.7,17.8c-11.3,0-18-5.3-19.8-7C3387.8,1117.4,3387.3,1116.9,3388.1,1115.5z"/>
</g>
<g>
	<path class="st17" d="M4030.3,1994.2h-13.7c-1,0-1.7-0.8-1.7-1.7v-7.4c0-0.9,0.7-1.7,1.7-1.7h39.3c1,0,1.7,0.8,1.7,1.7v7.4
		c0,0.9-0.7,1.7-1.7,1.7h-13.7v50.4c0,0.9-0.8,1.7-1.7,1.7h-8.4c-0.9,0-1.7-0.8-1.7-1.7v-50.4H4030.3z"/>
	<path class="st17" d="M4066.9,1985.2c0-0.9,0.7-1.7,1.7-1.7h25.7c10.8,0,19.6,8.6,19.6,19.3c0,8.3-5.5,15-13.3,18.1l12.3,22.8
		c0.6,1.2,0,2.6-1.5,2.6h-9.4c-0.8,0-1.3-0.4-1.4-0.8l-11.9-23.8h-10v22.9c0,0.9-0.8,1.7-1.7,1.7h-8.3c-1,0-1.7-0.8-1.7-1.7v-59.4
		H4066.9z M4093.3,2012.1c4.8,0,8.9-4.1,8.9-9.2c0-4.8-4.1-8.7-8.9-8.7h-14.6v17.9H4093.3z"/>
	<path class="st17" d="M4118.5,2044l27.9-60.5c0.3-0.5,0.7-1,1.5-1h0.9c0.9,0,1.3,0.4,1.5,1l27.7,60.5c0.5,1.2-0.2,2.3-1.5,2.3h-7.8
		c-1.3,0-2-0.5-2.6-1.8l-4.4-9.7h-26.9l-4.4,9.7c-0.4,0.9-1.2,1.8-2.6,1.8h-7.8C4118.7,2046.3,4118,2045.2,4118.5,2044z
		 M4157.3,2024.9l-9-19.8h-0.3l-8.8,19.8H4157.3z"/>
	<path class="st17" d="M4186.2,1984.2c0-0.9,0.8-1.6,1.7-1.6h2.2l37.4,39.7h0.1v-37.1c0-0.9,0.7-1.7,1.7-1.7h8.3
		c0.9,0,1.7,0.8,1.7,1.7v60.5c0,0.9-0.8,1.6-1.7,1.6h-2.2l-37.5-41.2h-0.1v38.6c0,0.9-0.7,1.7-1.7,1.7h-8.2c-0.9,0-1.7-0.8-1.7-1.7
		L4186.2,1984.2L4186.2,1984.2z"/>
	<path class="st17" d="M4252,2037.5l3.2-5.6c0.7-1.3,2.2-1.3,3.1-0.6c0.4,0.3,7.7,5.6,13.6,5.6c4.7,0,8.2-3.1,8.2-6.9
		c0-4.6-3.9-7.7-11.4-10.8c-8.4-3.4-16.9-8.8-16.9-19.4c0-8,5.9-17.2,20.2-17.2c9.2,0,16.2,4.7,18,6c0.9,0.5,1.2,2.1,0.5,3l-3.4,5.1
		c-0.7,1.1-2.1,1.8-3.1,1.1c-0.7-0.4-7.5-4.9-12.5-4.9c-5.1,0-7.9,3.4-7.9,6.3c0,4.2,3.3,7.1,10.6,10.1c8.7,3.5,18.8,8.7,18.8,20.3
		c0,9.3-8,17.8-20.7,17.8c-11.3,0-18-5.3-19.8-7C4251.6,2039.4,4251.2,2039,4252,2037.5z"/>
	<path class="st17" d="M4304.4,1985.2c0-0.9,0.7-1.7,1.7-1.7h36.6c1,0,1.7,0.8,1.7,1.7v7.4c0,0.9-0.7,1.7-1.7,1.7H4316v16.9h22.2
		c0.9,0,1.7,0.8,1.7,1.7v7.4c0,0.9-0.8,1.7-1.7,1.7H4316v22.7c0,0.9-0.8,1.7-1.7,1.7h-8.3c-1,0-1.7-0.8-1.7-1.7v-59.5H4304.4z"/>
	<path class="st17" d="M4382.8,1982.5c18,0,32.3,14.5,32.3,32.4c0,18-14.4,32.2-32.3,32.2s-32.2-14.3-32.2-32.2
		C4350.5,1997,4364.8,1982.5,4382.8,1982.5z M4382.8,2035.5c11.3,0,20.7-9.3,20.7-20.6s-9.3-20.8-20.7-20.8s-20.6,9.4-20.6,20.8
		S4371.5,2035.5,4382.8,2035.5z"/>
	<path class="st17" d="M4426.9,1985.2c0-0.9,0.7-1.7,1.7-1.7h25.7c10.8,0,19.6,8.6,19.6,19.3c0,8.3-5.5,15-13.3,18.1l12.3,22.8
		c0.6,1.2,0,2.6-1.5,2.6h-9.4c-0.8,0-1.3-0.4-1.4-0.8l-11.9-23.8h-10v22.9c0,0.9-0.8,1.7-1.7,1.7h-8.3c-1,0-1.7-0.8-1.7-1.7v-59.4
		H4426.9z M4453.3,2012.1c4.8,0,8.9-4.1,8.9-9.2c0-4.8-4.1-8.7-8.9-8.7h-14.6v17.9H4453.3z"/>
	<path class="st17" d="M4493.3,1983.9c0.1-0.7,0.6-1.3,1.6-1.3h1.4c0.7,0,1.3,0.4,1.5,0.9l19.8,42.4c0.2,0,0.2,0,0.3,0l19.8-42.4
		c0.3-0.5,0.7-0.9,1.5-0.9h1.4c1,0,1.5,0.6,1.6,1.3l10.6,60.4c0.3,1.3-0.4,2.1-1.6,2.1h-8.2c-0.8,0-1.5-0.7-1.7-1.3l-5.3-34
		c-0.1,0-0.3,0-0.3,0l-15.7,35.3c-0.2,0.5-0.7,1-1.5,1h-1.6c-0.8,0-1.3-0.4-1.5-1l-15.9-35.3c0,0-0.2,0-0.3,0l-5.2,34
		c-0.1,0.6-0.8,1.3-1.6,1.3h-8.1c-1.2,0-1.9-0.8-1.7-2.1L4493.3,1983.9z"/>
	<path class="st17" d="M3960.8,2104l-20.5-30c-0.7-1.2,0-2.6,1.4-2.6h9.2c0.7,0,1.2,0.4,1.4,0.8l14.4,20.7l14.4-20.7
		c0.3-0.4,0.7-0.8,1.4-0.8h9.3c1.4,0,2.2,1.4,1.4,2.6l-20.8,29.9v28.7c0,0.9-0.8,1.7-1.7,1.7h-8.3c-1,0-1.7-0.8-1.7-1.7V2104H3960.8
		z"/>
	<path class="st17" d="M4027.7,2070.5c18,0,32.3,14.5,32.3,32.4c0,18-14.4,32.2-32.3,32.2s-32.2-14.3-32.2-32.2
		C3995.4,2085,4009.7,2070.5,4027.7,2070.5z M4027.7,2123.5c11.3,0,20.7-9.3,20.7-20.6s-9.3-20.8-20.7-20.8s-20.6,9.4-20.6,20.8
		S4016.4,2123.5,4027.7,2123.5z"/>
	<path class="st17" d="M4070.9,2073.1c0-0.9,0.8-1.7,1.7-1.7h8.5c1,0,1.7,0.8,1.7,1.7v36.7c0,7.6,5.2,13.7,13,13.7
		c7.8,0,13.1-6,13.1-13.6v-36.8c0-0.9,0.7-1.7,1.7-1.7h8.5c0.9,0,1.7,0.8,1.7,1.7v37.4c0,13.7-10.9,24.7-25.1,24.7
		c-14.1,0-25-11-25-24.7v-37.4H4070.9z"/>
	<path class="st17" d="M4136.4,2073.1c0-0.9,0.7-1.7,1.7-1.7h25.7c10.8,0,19.6,8.6,19.6,19.3c0,8.3-5.5,15-13.3,18.1l12.3,22.8
		c0.6,1.2,0,2.6-1.5,2.6h-9.4c-0.8,0-1.3-0.4-1.4-0.8l-11.9-23.8h-10v22.9c0,0.9-0.8,1.7-1.7,1.7h-8.3c-1,0-1.7-0.8-1.7-1.7v-59.4
		H4136.4z M4162.8,2100.1c4.8,0,8.9-4.1,8.9-9.2c0-4.8-4.1-8.7-8.9-8.7h-14.6v17.9H4162.8z"/>
	<path class="st17" d="M4216.1,2073.1c0-0.9,0.7-1.7,1.7-1.7h21.1c11,0,20.1,9,20.1,19.9c0,11.1-9.1,20.2-20,20.2h-11.2v21.1
		c0,0.9-0.8,1.7-1.7,1.7h-8.3c-1,0-1.7-0.8-1.7-1.7V2073.1z M4238.2,2100.5c5,0,9.3-4,9.3-9.3c0-4.9-4.2-8.7-9.3-8.7h-10.4v18.1
		h10.4V2100.5z"/>
	<path class="st17" d="M4269.2,2073.1c0-0.9,0.7-1.7,1.7-1.7h25.7c10.8,0,19.6,8.6,19.6,19.3c0,8.3-5.5,15-13.3,18.1l12.3,22.8
		c0.6,1.2,0,2.6-1.5,2.6h-9.4c-0.8,0-1.3-0.4-1.4-0.8l-11.9-23.8h-10v22.9c0,0.9-0.8,1.7-1.7,1.7h-8.3c-1,0-1.7-0.8-1.7-1.7v-59.4
		H4269.2z M4295.7,2100.1c4.8,0,8.9-4.1,8.9-9.2c0-4.8-4.1-8.7-8.9-8.7H4281v17.9H4295.7z"/>
	<path class="st17" d="M4356.8,2070.5c18,0,32.3,14.5,32.3,32.4c0,18-14.4,32.2-32.3,32.2s-32.2-14.3-32.2-32.2
		C4324.6,2085,4338.9,2070.5,4356.8,2070.5z M4356.8,2123.5c11.3,0,20.7-9.3,20.7-20.6s-9.3-20.8-20.7-20.8s-20.6,9.4-20.6,20.8
		S4345.5,2123.5,4356.8,2123.5z"/>
	<path class="st17" d="M4400.9,2073.1c0-0.9,0.7-1.7,1.6-1.7h21.3c17.3,0,31.5,14.1,31.5,31.3c0,17.4-14.2,31.5-31.5,31.5h-21.3
		c-0.9,0-1.6-0.8-1.6-1.7V2073.1z M4422.8,2123.3c11.7,0,20.2-8.8,20.2-20.6c0-11.7-8.5-20.5-20.2-20.5h-10.2v41.1H4422.8z"/>
	<path class="st17" d="M4466.3,2073.1c0-0.9,0.8-1.7,1.7-1.7h8.5c1,0,1.7,0.8,1.7,1.7v36.7c0,7.6,5.2,13.7,13,13.7s13.1-6,13.1-13.6
		v-36.8c0-0.9,0.7-1.7,1.7-1.7h8.5c0.9,0,1.7,0.8,1.7,1.7v37.4c0,13.7-10.9,24.7-25.1,24.7c-14.1,0-25-11-25-24.7v-37.4H4466.3z"/>
	<path class="st17" d="M4559.7,2070.5c9.1,0,15.6,2.9,21.7,8.4c0.8,0.7,0.8,1.8,0.1,2.5l-5.5,5.7c-0.6,0.7-1.5,0.7-2.2,0
		c-3.8-3.3-8.8-5.3-13.8-5.3c-11.5,0-20,9.6-20,20.9c0,11.2,8.6,20.8,20.1,20.8c5.4,0,10-2.1,13.7-5.1c0.7-0.6,1.7-0.5,2.2,0
		l5.6,5.7c0.7,0.6,0.5,1.8-0.1,2.4c-6.1,5.9-13.8,8.7-21.8,8.7c-18,0-32.4-14.3-32.4-32.2C4527.3,2085,4541.7,2070.5,4559.7,2070.5z
		"/>
	<path class="st17" d="M4601.7,2082.2H4588c-1,0-1.7-0.8-1.7-1.7v-7.4c0-0.9,0.7-1.7,1.7-1.7h39.3c1,0,1.7,0.8,1.7,1.7v7.4
		c0,0.9-0.7,1.7-1.7,1.7h-13.7v50.4c0,0.9-0.8,1.7-1.7,1.7h-8.4c-0.9,0-1.7-0.8-1.7-1.7L4601.7,2082.2L4601.7,2082.2z"/>
</g>
<rect y="-122.5" class="st20" width="5400" height="2461.8"/>
</svg>
